<mxfile host="app.diagrams.net" agent="Mozilla/5.0 (Windows NT 10.0; Win64; x64) AppleWebKit/537.36 (KHTML, like Gecko) Chrome/133.0.0.0 Safari/537.36 Edg/133.0.0.0" version="26.0.16">
  <diagram name="第 1 页" id="yXlEQoJ82YV5HX1nshTO">
    <mxGraphModel dx="1270" dy="996" grid="1" gridSize="10" guides="1" tooltips="1" connect="1" arrows="1" fold="1" page="1" pageScale="1" pageWidth="827" pageHeight="1169" math="0" shadow="0">
      <root>
        <mxCell id="0" />
        <mxCell id="1" parent="0" />
        <mxCell id="CSncnALBBoFjUzkFDLcm-7" style="edgeStyle=orthogonalEdgeStyle;rounded=0;orthogonalLoop=1;jettySize=auto;html=1;exitX=0.5;exitY=1;exitDx=0;exitDy=0;entryX=0;entryY=0.5;entryDx=0;entryDy=0;" edge="1" parent="1" source="CSncnALBBoFjUzkFDLcm-1" target="CSncnALBBoFjUzkFDLcm-2">
          <mxGeometry relative="1" as="geometry" />
        </mxCell>
        <mxCell id="CSncnALBBoFjUzkFDLcm-1" value="&lt;font style=&quot;font-size: 17px;&quot;&gt;MVM&lt;/font&gt;" style="rounded=0;whiteSpace=wrap;html=1;" vertex="1" parent="1">
          <mxGeometry x="130" y="340" width="120" height="60" as="geometry" />
        </mxCell>
        <mxCell id="CSncnALBBoFjUzkFDLcm-8" style="edgeStyle=orthogonalEdgeStyle;rounded=0;orthogonalLoop=1;jettySize=auto;html=1;exitX=1;exitY=0.5;exitDx=0;exitDy=0;entryX=0.5;entryY=1;entryDx=0;entryDy=0;" edge="1" parent="1" source="CSncnALBBoFjUzkFDLcm-2" target="CSncnALBBoFjUzkFDLcm-4">
          <mxGeometry relative="1" as="geometry" />
        </mxCell>
        <mxCell id="CSncnALBBoFjUzkFDLcm-2" value="&lt;font style=&quot;font-size: 17px;&quot;&gt;Hypervisor&lt;/font&gt;" style="rounded=0;whiteSpace=wrap;html=1;" vertex="1" parent="1">
          <mxGeometry x="270" y="500" width="120" height="60" as="geometry" />
        </mxCell>
        <mxCell id="CSncnALBBoFjUzkFDLcm-4" value="&lt;font style=&quot;font-size: 17px;&quot;&gt;GVM&lt;/font&gt;" style="rounded=0;whiteSpace=wrap;html=1;" vertex="1" parent="1">
          <mxGeometry x="414" y="340" width="120" height="60" as="geometry" />
        </mxCell>
        <mxCell id="CSncnALBBoFjUzkFDLcm-10" value="" style="endArrow=none;dashed=1;html=1;rounded=0;" edge="1" parent="1">
          <mxGeometry width="50" height="50" relative="1" as="geometry">
            <mxPoint x="10" y="460" as="sourcePoint" />
            <mxPoint x="690" y="460" as="targetPoint" />
          </mxGeometry>
        </mxCell>
        <mxCell id="CSncnALBBoFjUzkFDLcm-13" value="&lt;font style=&quot;font-size: 16px;&quot;&gt;EL1&lt;/font&gt;" style="text;html=1;align=center;verticalAlign=middle;whiteSpace=wrap;rounded=0;" vertex="1" parent="1">
          <mxGeometry x="30" y="355" width="60" height="30" as="geometry" />
        </mxCell>
        <mxCell id="CSncnALBBoFjUzkFDLcm-14" value="&lt;font style=&quot;font-size: 16px;&quot;&gt;EL2&lt;/font&gt;" style="text;html=1;align=center;verticalAlign=middle;whiteSpace=wrap;rounded=0;" vertex="1" parent="1">
          <mxGeometry x="30" y="500" width="60" height="30" as="geometry" />
        </mxCell>
      </root>
    </mxGraphModel>
  </diagram>
</mxfile>
